<svg xmlns="http://www.w3.org/2000/svg">
  <!-- REMEHBS icon sprite — lucide-based icons for offline/fallback use -->
  <symbol id="heart-pulse" viewBox="0 0 24 24" fill="none" stroke="currentColor" stroke-width="2" stroke-linecap="round" stroke-linejoin="round">
    <path d="M19 14c1.49-1.46 3-3.21 3-5.5A5.5 5.5 0 0 0 16.5 3c-1.76 0-3 .5-4.5 2-1.5-1.5-2.74-2-4.5-2A5.5 5.5 0 0 0 2 8.5c0 2.3 1.5 4.05 3 5.5l7 7Z"/>
    <path d="M3.22 12H9.5l.5-1 2 4.5 2-7 1.5 3.5h5.27"/>
  </symbol>
  <symbol id="user-plus" viewBox="0 0 24 24" fill="none" stroke="currentColor" stroke-width="2" stroke-linecap="round" stroke-linejoin="round">
    <path d="M16 21v-2a4 4 0 0 0-4-4H6a4 4 0 0 0-4 4v2"/>
    <circle cx="9" cy="7" r="4"/>
    <line x1="19" x2="19" y1="8" y2="14"/>
    <line x1="22" x2="16" y1="11" y2="11"/>
  </symbol>
  <symbol id="shield-check" viewBox="0 0 24 24" fill="none" stroke="currentColor" stroke-width="2" stroke-linecap="round" stroke-linejoin="round">
    <path d="M20 13c0 5-3.5 7.5-7.66 8.95a1 1 0 0 1-.67-.01C7.5 20.5 4 18 4 13V6a1 1 0 0 1 1-1c2 0 4.5-1.2 6.24-2.72a1.17 1.17 0 0 1 1.52 0C14.51 3.81 17 5 19 5a1 1 0 0 1 1 1z"/>
    <path d="m9 12 2 2 4-4"/>
  </symbol>
  <symbol id="stethoscope" viewBox="0 0 24 24" fill="none" stroke="currentColor" stroke-width="2" stroke-linecap="round" stroke-linejoin="round">
    <path d="M11 2v2"/>
    <path d="M5 2v2"/>
    <path d="M5 3H4a2 2 0 0 0-2 2v4a6 6 0 0 0 12 0V5a2 2 0 0 0-2-2h-1"/>
    <path d="M8 15a6 6 0 0 0 12 0v-3"/>
    <circle cx="20" cy="10" r="2"/>
  </symbol>
  <symbol id="calendar-days" viewBox="0 0 24 24" fill="none" stroke="currentColor" stroke-width="2" stroke-linecap="round" stroke-linejoin="round">
    <path d="M8 2v4"/>
    <path d="M16 2v4"/>
    <rect width="18" height="18" x="3" y="4" rx="2"/>
    <path d="M3 10h18"/>
    <path d="M8 14h.01"/>
    <path d="M12 14h.01"/>
    <path d="M16 14h.01"/>
    <path d="M8 18h.01"/>
    <path d="M12 18h.01"/>
    <path d="M16 18h.01"/>
  </symbol>
</svg>
